<?xml version="1.0" standalone="no"?>
<!DOCTYPE svg PUBLIC "-//W3C//DTD SVG 20010904//EN"
 "http://www.w3.org/TR/2001/REC-SVG-20010904/DTD/svg10.dtd">
<svg version="1.0" xmlns="http://www.w3.org/2000/svg"
 width="300.000000pt" height="168.000000pt" viewBox="0 0 300.000000 168.000000"
 preserveAspectRatio="xMidYMid meet">
<metadata>
Created by potrace 1.16, written by Peter Selinger 2001-2019
</metadata>
<g transform="translate(0.000000,168.000000) scale(0.100000,-0.100000)"
fill="#000000" stroke="none">
<path d="M0 840 l0 -840 1500 0 1500 0 0 840 0 840 -1500 0 -1500 0 0 -840z
m1594 520 c124 -20 176 -72 176 -175 l0 -63 73 -4 c86 -4 113 -20 154 -93 25
-45 28 -62 31 -163 3 -90 1 -123 -13 -160 -34 -91 -93 -132 -190 -132 l-55 0
0 -84 c0 -83 0 -84 -35 -115 -50 -44 -99 -53 -250 -49 -110 3 -136 7 -172 26
-68 35 -83 63 -83 148 l0 74 -75 0 c-71 0 -77 2 -113 34 -55 50 -76 117 -76
241 0 87 3 107 25 156 37 78 75 103 164 107 l70 4 -3 60 c-2 32 -1 71 2 85 8
29 50 71 86 85 62 25 192 33 284 18z"/>
<path d="M1389 1321 c-58 -11 -105 -35 -119 -61 -6 -11 -10 -46 -8 -78 l3 -57
118 -3 117 -3 0 -24 0 -25 -192 0 c-176 0 -196 -2 -226 -20 -54 -33 -77 -96
-76 -210 0 -81 4 -104 27 -153 29 -64 65 -87 136 -87 47 0 51 8 51 96 0 76 18
117 63 144 28 17 52 20 187 21 251 1 260 8 260 235 0 162 -7 178 -82 209 -49
19 -191 28 -259 16z"/>
</g>
</svg>
