<?xml version="1.0" standalone="no"?>
<!DOCTYPE svg PUBLIC "-//W3C//DTD SVG 20010904//EN"
 "http://www.w3.org/TR/2001/REC-SVG-20010904/DTD/svg10.dtd">
<svg version="1.0" xmlns="http://www.w3.org/2000/svg"
 width="262.000000pt" height="192.000000pt" viewBox="0 0 262.000000 192.000000"
 preserveAspectRatio="xMidYMid meet">

<g transform="translate(0.000000,192.000000) scale(0.100000,-0.100000)"
fill="#000000" stroke="none">
<path d="M1765 1682 c-19 -5 -31 -15 -36 -32 -7 -24 -7 -24 -8 -2 -1 25 -4 26
-32 11 -11 -6 -17 -15 -12 -22 4 -7 0 -7 -10 2 -14 11 -18 11 -23 -3 -3 -9
-10 -13 -15 -10 -14 8 -81 -45 -73 -58 4 -6 2 -8 -4 -5 -11 8 -54 -39 -79 -87
-20 -39 -43 -122 -43 -158 0 -25 4 -28 34 -28 35 0 55 -13 36 -25 -5 -3 -10 0
-10 7 0 10 -2 10 -9 -1 -5 -8 -18 -12 -31 -8 -21 5 -22 3 -16 -42 20 -162 108
-263 321 -365 157 -76 173 -82 155 -61 -10 12 -10 15 4 15 9 0 16 -8 16 -19 0
-11 9 -23 20 -26 11 -4 40 -22 65 -40 28 -22 45 -30 48 -22 2 7 3 5 2 -4 -1
-9 1 -23 6 -30 8 -12 11 -11 19 1 5 8 10 10 10 4 0 -6 -3 -14 -7 -18 -5 -4 -9
-27 -9 -52 -1 -31 -9 -54 -28 -79 -15 -19 -22 -35 -17 -35 6 0 11 -5 11 -11 0
-8 -4 -8 -14 0 -10 8 -23 7 -52 -5 -81 -34 -229 -12 -296 44 -17 14 -47 47
-68 73 l-36 46 -70 -41 c-54 -32 -69 -45 -67 -61 3 -18 3 -18 -7 -3 -11 18
-24 12 -99 -39 -6 -4 47 -83 77 -115 14 -15 30 -25 35 -21 6 3 7 1 3 -5 -14
-24 194 -145 236 -137 10 2 18 0 18 -4 0 -4 7 -8 16 -8 14 0 14 2 -2 14 -15
11 -16 15 -5 22 7 5 22 6 33 3 14 -3 16 -7 8 -12 -7 -4 -11 -13 -9 -19 3 -8
12 -5 26 9 26 24 30 25 30 5 0 -8 -9 -15 -19 -15 -10 0 -18 -4 -18 -10 0 -5
11 -10 24 -10 18 0 26 6 28 22 2 12 10 23 18 25 9 3 11 1 5 -4 -5 -4 -11 -16
-13 -25 -2 -14 4 -17 28 -15 16 1 30 5 30 10 0 12 28 8 33 -5 3 -8 6 -6 6 4 1
12 6 15 17 11 13 -5 13 -8 2 -15 -22 -16 91 1 161 24 l64 21 -24 18 c-20 15
-21 19 -6 19 9 0 17 -5 17 -10 0 -7 6 -7 19 0 14 7 20 7 23 -1 5 -16 103 75
131 124 32 53 68 185 47 172 -5 -3 -10 0 -11 7 -1 7 -5 2 -9 -12 l-8 -25 -1
29 c-1 24 2 27 19 23 18 -5 20 0 20 43 0 27 -4 51 -9 54 -4 3 -6 -6 -3 -19 2
-14 0 -25 -6 -25 -13 0 -12 40 0 57 19 25 -44 171 -71 165 -7 -1 -9 2 -6 8 4
7 -14 32 -41 57 -43 41 -48 44 -55 27 -7 -18 -8 -18 -8 2 -1 24 -46 59 -62 48
-6 -3 -9 -17 -6 -30 2 -13 0 -21 -5 -17 -6 3 -7 18 -4 34 5 27 1 31 -45 54
-27 14 -54 23 -59 20 -6 -4 -10 -2 -10 3 0 8 -42 32 -55 32 -13 0 -3 -19 13
-23 11 -3 8 -5 -9 -6 -16 -1 -29 5 -33 14 -3 8 0 15 7 15 7 0 -21 18 -62 40
-41 21 -79 36 -85 33 -6 -3 -8 -3 -4 1 3 4 -5 24 -18 43 -45 67 -21 165 48
194 17 7 52 13 77 13 60 0 150 -43 151 -71 0 -4 9 -19 18 -31 l19 -24 51 32
c29 17 52 36 52 41 0 5 4 8 8 7 11 -4 123 65 120 74 -6 15 -83 118 -89 118 -4
0 -20 13 -37 28 -16 15 -49 36 -72 47 -35 16 -43 17 -51 4 -7 -12 -9 -11 -9 2
0 9 -8 20 -17 24 -25 10 -222 15 -258 7z m80 -32 c1 -11 -2 -20 -7 -20 -4 0
-8 12 -8 27 0 30 13 24 15 -7z m77 11 c8 12 9 12 6 0 -7 -25 -28 -24 -27 1 1
19 2 20 6 4 4 -15 7 -16 15 -5z m-145 -11 c1 -11 -2 -20 -7 -20 -6 0 -7 17 -1
38 3 8 7 -1 8 -18z m113 5 c0 -8 -2 -15 -4 -15 -2 0 -6 7 -10 15 -3 8 -1 15 4
15 6 0 10 -7 10 -15z m133 -5 c3 -11 1 -20 -4 -20 -5 0 -9 9 -9 20 0 11 2 20
4 20 2 0 6 -9 9 -20z m-276 -12 c-3 -8 -6 -5 -6 6 -1 11 2 17 5 13 3 -3 4 -12
1 -19z m243 2 c0 -5 -5 -10 -11 -10 -5 0 -7 5 -4 10 3 6 8 10 11 10 2 0 4 -4
4 -10z m0 -82 c0 -10 -2 -10 -9 1 -7 11 -9 11 -14 0 -3 -8 -6 -1 -6 14 -1 25
1 27 14 13 8 -8 15 -21 15 -28z m71 0 c-11 -10 -12 -10 -7 0 4 6 2 12 -3 12
-6 0 -11 -5 -11 -12 0 -6 -3 -9 -6 -5 -3 3 -3 15 1 27 6 20 8 21 23 6 14 -13
14 -18 3 -28z m-291 7 c0 -14 -4 -25 -9 -25 -5 0 -8 8 -6 18 2 9 4 20 4 25 2
19 11 4 11 -18z m105 -5 c1 -11 -2 -20 -6 -20 -9 0 -19 37 -11 44 8 9 16 -2
17 -24z m70 1 c0 -16 -3 -27 -7 -24 -13 7 -7 53 6 53 1 0 1 -13 1 -29z m195
15 c0 -7 -7 -19 -15 -26 -13 -11 -15 -8 -15 14 0 16 5 26 15 26 8 0 15 -6 15
-14z m38 -9 c2 -10 -3 -17 -12 -17 -9 0 -14 8 -13 20 2 24 21 21 25 -3z m-451
-19 c-3 -7 -5 -2 -5 12 0 14 2 19 5 13 2 -7 2 -19 0 -25z m115 0 c-15 -15 -26
-4 -18 18 5 13 9 15 18 6 9 -9 9 -15 0 -24z m78 22 c0 -5 -5 -10 -11 -10 -5 0
-7 -4 -4 -10 3 -5 1 -10 -4 -10 -6 0 -11 9 -11 20 0 11 7 20 15 20 8 0 15 -4
15 -10z m-324 -15 c-1 -8 -5 -17 -8 -21 -5 -4 -4 16 1 34 3 9 9 -1 7 -13z m74
-5 c0 -19 -11 -26 -23 -14 -8 8 3 34 14 34 5 0 9 -9 9 -20z m26 1 c0 -11 -4
-17 -8 -15 -4 3 -8 12 -8 20 0 8 4 14 8 14 4 0 8 -9 8 -19z m112 7 c-2 -5 -8
-9 -13 -9 -5 0 -11 4 -13 9 -1 5 4 9 13 9 9 0 14 -4 13 -9z m212 -8 c0 -5 -5
-10 -11 -10 -5 0 -7 5 -4 10 3 6 8 10 11 10 2 0 4 -4 4 -10z m-260 -80 c0 -16
-4 -30 -8 -30 -5 0 -8 10 -6 23 1 12 3 25 3 30 3 21 11 3 11 -23z m-35 -10 c1
-10 -2 -17 -7 -14 -4 3 -8 15 -8 26 0 26 13 15 15 -12z m138 10 c3 -11 1 -20
-4 -20 -5 0 -9 9 -9 20 0 11 2 20 4 20 2 0 6 -9 9 -20z m47 -6 c0 -8 -7 -14
-15 -14 -15 0 -21 21 -9 33 10 9 24 -2 24 -19z m140 22 c0 -3 -4 -8 -10 -11
-5 -3 -10 -1 -10 4 0 6 5 11 10 11 6 0 10 -2 10 -4z m229 -39 c1 -5 -3 -5 -9
-2 -5 3 -10 16 -9 28 0 21 1 21 9 2 5 -11 9 -24 9 -28z m-792 14 c0 -11 -5
-18 -9 -15 -4 3 -5 11 -1 19 7 21 12 19 10 -4z m111 4 c4 -4 1 -4 -7 0 -11 6
-13 4 -8 -9 5 -12 3 -16 -5 -13 -7 2 -22 0 -32 -6 -16 -8 -18 -6 -13 8 4 9 7
20 7 25 0 11 47 6 58 -5z m88 -5 c0 -8 -10 -16 -22 -16 -16 -1 -22 4 -21 16 1
22 43 22 43 0z m112 2 c6 -18 -15 -14 -22 4 -4 10 -1 14 6 12 6 -2 14 -10 16
-16z m42 1 c0 -18 -27 -16 -33 1 -4 10 0 14 14 13 10 -1 19 -7 19 -14z m105 7
c3 -5 -1 -10 -9 -10 -9 0 -16 5 -16 10 0 6 4 10 9 10 6 0 13 -4 16 -10z m67 1
c8 11 9 11 6 1 -4 -16 -22 -18 -24 -2 -2 7 -1 6 3 -1 4 -8 8 -7 15 2z m-482
-11 c0 -3 -6 -14 -12 -23 -12 -16 -13 -15 -13 6 0 13 6 24 13 24 6 0 12 -3 12
-7z m52 -102 c-10 -10 -15 -10 -21 1 -5 8 -7 21 -4 28 5 12 8 12 21 -1 13 -13
14 -18 4 -28z m65 -5 c-3 -10 -5 -2 -5 17 0 19 2 27 5 18 2 -10 2 -26 0 -35z
m-134 17 c3 -11 1 -20 -4 -20 -5 0 -9 9 -9 20 0 11 2 20 4 20 2 0 6 -9 9 -20z
m199 -22 c-6 -6 -7 0 -4 19 5 21 7 23 10 9 2 -10 0 -22 -6 -28z m408 24 c0 -5
-7 -9 -15 -9 -8 0 -12 4 -9 9 3 4 9 8 15 8 5 0 9 -4 9 -8z m-570 -12 c0 -5 -4
-10 -10 -10 -5 0 -10 5 -10 10 0 6 5 10 10 10 6 0 10 -4 10 -10z m60 -75 c0
-14 -3 -25 -7 -25 -5 0 -8 11 -8 25 0 14 3 25 8 25 4 0 7 -11 7 -25z m-41 4
c-11 -7 -11 -11 -1 -17 8 -6 2 -9 -18 -9 -16 0 -30 6 -30 12 0 17 5 20 36 22
19 1 23 -1 13 -8z m81 -15 c0 -8 -7 -14 -15 -14 -8 0 -15 5 -15 10 0 6 5 10
11 10 5 0 7 5 3 12 -4 7 -3 8 4 4 7 -4 12 -14 12 -22z m27 6 c1 -11 -2 -20 -8
-20 -10 0 -12 23 -2 33 9 9 9 10 10 -13z m28 10 c-3 -5 -1 -10 5 -10 6 0 8 -4
5 -10 -10 -16 -23 -11 -20 8 5 23 4 22 11 22 3 0 2 -4 -1 -10z m-244 -106 c-5
-16 -10 -21 -10 -12 -1 18 10 51 15 45 2 -1 -1 -16 -5 -33z m72 17 c2 -10 1
-25 -4 -32 -6 -10 -9 -4 -9 19 0 36 5 42 13 13z m-40 -42 c-6 -6 -7 3 -4 23 4
28 6 29 9 9 2 -13 0 -27 -5 -32z m98 18 c-10 -9 -11 -8 -5 6 3 10 9 15 12 12
3 -3 0 -11 -7 -18z m119 12 c0 -5 -6 -7 -12 -3 -10 6 -10 4 0 -7 16 -18 15
-29 -3 -29 -9 0 -15 9 -15 25 0 16 6 25 15 25 8 0 15 -5 15 -11z m30 -9 c0 -5
-4 -10 -10 -10 -5 0 -10 5 -10 10 0 6 5 10 10 10 6 0 10 -4 10 -10z m-3 -66
c-3 -3 -12 -4 -19 -1 -8 3 -5 6 6 6 11 1 17 -2 13 -5z m66 -14 c-7 -25 -22
-36 -18 -13 2 10 4 21 4 26 1 4 5 7 10 7 5 0 7 -9 4 -20z m37 -10 c0 -10 -3
-21 -7 -23 -5 -3 -8 8 -8 23 0 15 3 26 8 23 4 -2 7 -13 7 -23z m-317 0 c3 -11
1 -20 -4 -20 -5 0 -9 9 -9 20 0 11 2 20 4 20 2 0 6 -9 9 -20z m77 3 c0 -14 -2
-15 -9 -4 -7 11 -9 11 -14 0 -4 -10 -6 -9 -6 4 -1 9 6 17 14 17 8 0 15 -8 15
-17z m73 2 c8 -8 18 -11 22 -7 5 4 5 1 1 -6 -6 -11 -12 -10 -26 3 -14 13 -19
13 -23 3 -4 -8 -6 -7 -6 5 -1 21 13 22 32 2z m232 -2 c-2 -10 -4 -19 -4 -21
-1 -2 -6 0 -11 3 -8 5 -7 11 1 21 15 18 18 18 14 -3z m-287 -89 c-7 -15 -14
-21 -16 -15 -5 16 5 41 17 41 7 0 6 -10 -1 -26z m32 1 c0 -14 -4 -25 -9 -25
-4 0 -6 11 -3 25 2 14 6 25 8 25 2 0 4 -11 4 -25z m-61 -9 c-1 -20 -2 -20 -7
-1 -4 18 -5 18 -11 3 -6 -17 -7 -17 -17 0 -9 14 -7 17 12 18 19 2 24 -3 23
-20z m163 -1 c3 -13 1 -22 -3 -19 -9 5 -13 44 -5 44 2 0 6 -11 8 -25z m-38 0
c-4 -8 -8 -15 -10 -15 -2 0 -4 7 -4 15 0 8 4 15 10 15 5 0 7 -7 4 -15z m190 7
c3 -5 -1 -9 -9 -9 -8 0 -12 4 -9 9 3 4 7 8 9 8 2 0 6 -4 9 -8z m-104 -12 c0
-5 -7 -10 -15 -10 -8 0 -15 5 -15 10 0 6 7 10 15 10 8 0 15 -4 15 -10z m203
-85 c-3 -9 -8 -14 -10 -11 -3 3 -2 9 2 15 9 16 15 13 8 -4z m-173 -6 c0 -4 -7
-9 -15 -13 -9 -3 -15 0 -15 8 0 7 7 13 15 13 8 0 15 -4 15 -8z m22 -21 c-8 -8
-9 -4 -5 13 4 13 8 18 11 10 2 -7 -1 -18 -6 -23z m88 28 c0 -2 2 -11 5 -18 4
-9 -2 -14 -17 -15 -13 0 -17 1 -10 4 6 3 12 9 12 14 0 6 -4 7 -10 4 -5 -3 -10
-1 -10 4 0 6 7 11 15 11 8 0 15 -2 15 -4z m30 -16 c0 -11 -2 -20 -4 -20 -2 0
-6 9 -9 20 -3 11 -1 20 4 20 5 0 9 -9 9 -20z m214 -16 c3 -8 2 -12 -4 -9 -6 3
-10 10 -10 16 0 14 7 11 14 -7z m45 3 c8 -10 7 -14 -2 -14 -8 0 -14 6 -14 14
0 7 1 13 2 13 2 0 8 -6 14 -13z m-342 -69 c-3 -8 -6 -5 -6 6 -1 11 2 17 5 13
3 -3 4 -12 1 -19z m68 -18 c1 -10 -2 -17 -7 -14 -4 3 -8 15 -8 26 0 26 13 15
15 -12z m78 15 c-3 -9 -8 -14 -10 -11 -3 3 -2 9 2 15 9 16 15 13 8 -4z m-33
-15 c0 -11 -7 -20 -15 -20 -8 0 -15 5 -15 11 0 5 5 7 12 3 8 -5 9 -2 5 9 -3
10 -2 17 3 17 6 0 10 -9 10 -20z m150 -25 c0 -5 -5 -3 -10 5 -5 8 -10 20 -10
25 0 6 5 3 10 -5 5 -8 10 -19 10 -25z m107 3 c-3 -8 -6 -5 -6 6 -1 11 2 17 5
13 3 -3 4 -12 1 -19z m47 7 c-4 -8 -8 -15 -10 -15 -2 0 -4 7 -4 15 0 8 4 15
10 15 5 0 7 -7 4 -15z m-85 -212 c-1 -17 -2 -17 -6 1 -4 15 -7 16 -14 5 -6
-10 -9 -6 -9 14 0 25 2 27 15 13 8 -8 14 -23 14 -33z m-46 30 c-7 -2 -13 -12
-13 -20 0 -9 -3 -14 -6 -10 -10 10 4 37 18 36 10 0 10 -2 1 -6z m164 -34 c1
-12 -3 -16 -13 -12 -8 3 -14 16 -14 29 0 20 3 22 13 13 7 -7 14 -20 14 -30z
m-77 20 c0 -5 -4 -7 -10 -4 -5 3 -10 2 -10 -4 0 -5 6 -12 13 -14 7 -3 5 -6 -5
-6 -12 -1 -18 6 -18 19 0 11 7 20 15 20 8 0 15 -5 15 -11z m31 2 c-7 -5 -10
-14 -7 -20 4 -6 2 -11 -3 -11 -12 0 -15 23 -4 33 3 4 11 7 17 7 6 0 5 -4 -3
-9z m-749 -63 c-7 -7 -10 -5 -7 8 5 29 6 30 12 16 3 -8 1 -18 -5 -24z m-62 12
c0 -5 -2 -10 -4 -10 -3 0 -8 5 -11 10 -3 6 -1 10 4 10 6 0 11 -4 11 -10z m685
-37 c-2 -10 -4 -22 -4 -28 -1 -5 -5 -3 -11 5 -5 9 -5 19 2 27 14 17 17 16 13
-4z m37 -9 c-3 -18 -7 -22 -13 -13 -4 7 -3 19 3 26 15 18 16 17 10 -13z m35
-21 c-3 -10 -5 -4 -5 12 0 17 2 24 5 18 2 -7 2 -21 0 -30z m50 0 c0 -9 -4 -10
-14 -2 -7 6 -13 12 -13 14 0 1 6 2 13 2 8 0 14 -6 14 -14z m-892 -13 c3 -5 1
-10 -4 -10 -6 0 -11 5 -11 10 0 6 2 10 4 10 3 0 8 -4 11 -10z m210 -15 c0 -14
-4 -26 -9 -28 -10 -2 -18 32 -10 45 10 16 20 7 19 -17z m79 -17 c9 15 29 16
24 0 -2 -6 -16 -13 -30 -15 -23 -3 -25 -1 -20 24 l6 28 6 -25 c4 -17 8 -21 14
-12z m-39 12 c3 -5 1 -10 -5 -10 -6 0 -8 -5 -4 -12 4 -7 3 -8 -4 -4 -14 9 -16
36 -3 36 6 0 13 -4 16 -10z m105 -12 c0 -9 3 -9 9 1 8 12 12 12 25 2 12 -10
16 -10 16 -2 0 7 5 9 10 6 6 -3 10 -14 10 -23 0 -15 -2 -15 -10 -2 -8 13 -10
13 -10 1 0 -11 -4 -10 -16 5 -15 18 -15 18 -10 0 5 -14 2 -17 -10 -12 -8 3
-22 6 -30 6 -8 0 -14 7 -14 15 0 8 7 15 15 15 8 0 15 -6 15 -12z m105 -18 c1
-11 -2 -20 -6 -20 -9 0 -19 37 -11 44 8 9 16 -2 17 -24z m107 -2 c-4 -27 -6
-29 -12 -14 -4 14 -9 16 -14 8 -10 -16 -39 -15 -33 1 2 6 11 12 20 12 9 0 22
6 29 13 6 6 13 12 13 12 1 0 -1 -15 -3 -32z m43 5 c-2 -10 -4 -22 -4 -28 -1
-5 -5 -4 -10 4 -10 15 -4 41 9 41 5 0 7 -8 5 -17z m151 -27 c-1 -20 -5 -31
-10 -26 -7 7 -1 60 7 60 2 0 3 -15 3 -34z m-98 16 c9 9 15 9 25 -1 10 -11 9
-12 -2 -6 -10 6 -13 4 -9 -7 5 -11 -1 -15 -23 -15 -19 0 -25 3 -17 9 10 6 10
8 1 8 -7 0 -13 5 -13 11 0 8 4 8 13 0 10 -8 17 -7 25 1z m57 -16 c0 -13 -3
-22 -7 -19 -5 2 -8 13 -8 24 0 10 3 19 8 19 4 0 7 -11 7 -24z m85 -4 c0 -9 -4
-23 -8 -30 -5 -8 -8 1 -8 22 1 19 4 32 9 29 4 -2 7 -12 7 -21z m78 -14 c-7
-13 -11 -27 -10 -31 1 -5 -2 -6 -8 -2 -11 7 -14 38 -3 48 3 4 12 7 20 7 11 0
11 -4 1 -22z m-748 4 c0 -4 -5 -13 -12 -20 -7 -7 -9 -12 -5 -12 3 0 16 10 28
23 12 12 19 17 15 10 -3 -6 -2 -14 4 -18 24 -15 9 -31 -26 -27 -26 3 -34 8
-30 19 3 8 6 19 6 24 0 5 5 9 10 9 6 0 10 -4 10 -8z m87 -39 c-3 -10 -5 -4 -5
12 0 17 2 24 5 18 2 -7 2 -21 0 -30z m623 28 c0 -6 -4 -13 -10 -16 -5 -3 -10
1 -10 9 0 9 5 16 10 16 6 0 10 -4 10 -9z m-459 -38 c13 -16 12 -17 -3 -4 -17
13 -22 21 -14 21 2 0 10 -8 17 -17z m136 -15 c-3 -7 -5 -2 -5 12 0 14 2 19 5
13 2 -7 2 -19 0 -25z m34 -10 c-3 -21 -6 -26 -9 -15 -3 17 3 47 11 47 2 0 1
-15 -2 -32z m69 7 c6 4 10 -3 10 -17 0 -17 -3 -19 -9 -9 -5 8 -18 12 -30 8
-13 -3 -21 0 -21 7 0 20 12 27 26 15 7 -6 18 -8 24 -4z m60 -6 c0 -7 -8 -18
-17 -26 -17 -14 -17 -14 0 -9 9 3 17 1 17 -5 0 -6 -8 -9 -17 -7 -9 2 -16 6
-15 11 1 4 2 16 2 27 0 11 7 20 15 20 8 0 15 -5 15 -11z m31 -2 c-6 -8 -7 -18
-3 -22 4 -5 1 -5 -6 -1 -10 6 -10 11 -1 22 6 8 14 14 16 14 3 0 0 -6 -6 -13z
m-417 -55 c3 -5 -1 -9 -9 -9 -8 0 -15 4 -15 9 0 4 4 8 9 8 6 0 12 -4 15 -8z
m186 -16 c0 -2 -7 -7 -16 -10 -8 -3 -12 -2 -9 4 6 10 25 14 25 6z"/>
<path d="M872 1648 c3 -20 8 -23 45 -22 35 2 41 -1 40 -16 -1 -10 -5 -16 -9
-14 -5 3 -6 11 -2 17 3 7 -1 4 -10 -7 -8 -10 -20 -15 -27 -10 -8 4 -10 3 -5
-4 4 -7 1 -12 -8 -12 -8 0 -17 8 -19 18 -3 9 -5 -94 -6 -229 0 -135 2 -249 6
-252 3 -4 12 1 19 11 12 16 13 16 14 -3 0 -17 2 -17 10 -5 9 13 11 13 20 0 17
-26 11 -32 -30 -28 l-40 4 -1 -261 c0 -290 -5 -316 -58 -352 -52 -35 -145 -33
-197 5 -22 16 -45 27 -52 24 -6 -2 -12 1 -12 8 0 6 5 8 10 5 16 -10 12 3 -15
45 -29 46 -16 49 -147 -30 -93 -57 -105 -67 -94 -77 4 -4 11 -1 16 7 7 11 10
11 10 2 0 -19 -31 -27 -41 -11 -7 12 -9 11 -9 -2 0 -26 54 -102 110 -153 99
-90 200 -121 369 -113 119 5 193 22 170 39 -11 8 -10 9 4 4 65 -21 198 131
227 259 21 92 21 278 0 245 -6 -9 -9 -9 -15 0 -4 7 1 13 14 17 22 6 29 37 10
49 -6 3 -8 17 -4 33 4 14 9 56 11 93 3 56 1 66 -11 62 -10 -4 -15 0 -15 15 0
12 6 21 15 21 17 0 20 26 4 36 -6 4 -8 19 -5 38 10 48 14 266 5 266 -4 0 -10
-6 -12 -12 -3 -8 -6 -6 -6 5 -1 9 6 17 14 17 8 0 15 9 15 20 0 11 -4 20 -9 20
-4 0 -8 13 -7 30 1 16 3 30 6 30 3 0 5 42 5 93 l0 92 -153 3 -153 3 3 -23z
m238 -20 c0 -13 -4 -30 -10 -38 -6 -10 -8 -3 -7 23 2 39 17 52 17 15z m23 3
c2 -10 1 -25 -4 -32 -6 -10 -9 -4 -9 19 0 36 5 42 13 13z m29 -27 c-6 -12 -9
-7 -9 16 0 23 3 28 9 16 5 -9 5 -23 0 -32z m-142 11 c0 -8 -4 -17 -10 -20 -6
-4 -10 5 -10 20 0 15 4 24 10 20 6 -3 10 -12 10 -20z m17 -22 c-3 -10 -5 -2
-5 17 0 19 2 27 5 18 2 -10 2 -26 0 -35z m43 27 c0 -19 -11 -26 -23 -14 -8 8
3 34 14 34 5 0 9 -9 9 -20z m-67 -102 c-10 -18 -20 -6 -15 19 5 24 6 25 12 8
4 -11 6 -23 3 -27z m140 17 c-7 -21 -13 -19 -13 6 0 11 4 18 10 14 5 -3 7 -12
3 -20z m-225 -8 c2 -10 -3 -17 -12 -17 -9 0 -16 8 -17 18 -1 11 -4 9 -9 -8 -7
-22 -8 -22 -9 -4 -1 11 2 23 5 26 11 11 39 1 42 -15z m48 3 c0 -11 -4 -20 -8
-20 -10 0 -11 24 -1 33 9 9 9 10 9 -13z m64 0 c0 -11 -4 -20 -9 -20 -7 0 -8
17 -2 38 4 10 11 -2 11 -18z m25 10 c-3 -5 -1 -10 4 -10 6 0 11 5 11 10 0 6 4
10 9 10 6 0 9 -8 8 -19 -1 -12 -9 -18 -22 -18 -13 0 -21 6 -22 18 -1 11 3 19
8 19 6 0 7 -4 4 -10z m61 -5 c-3 -23 -12 -26 -13 -5 -1 11 2 20 7 20 4 0 7 -7
6 -15z m-38 -86 c-3 -8 -7 -3 -11 10 -4 17 -3 21 5 13 5 -5 8 -16 6 -23z m32
1 c0 -31 -15 -30 -16 1 -1 15 3 26 7 23 5 -3 9 -14 9 -24z m30 13 c0 -10 -4
-24 -9 -31 -5 -9 -8 -3 -7 17 1 32 16 45 16 14z m-214 -51 c-11 -10 -14 3 -8
33 l7 30 3 -28 c2 -16 1 -31 -2 -35z m36 26 c-15 -15 -26 -4 -18 18 5 13 9 15
18 6 9 -9 9 -15 0 -24z m28 2 c0 -16 -4 -30 -8 -30 -5 0 -7 14 -4 30 2 17 6
30 8 30 2 0 4 -13 4 -30z m19 -24 c-9 -8 -10 -7 -5 7 3 10 7 26 7 35 1 9 4 6
6 -7 3 -13 -1 -28 -8 -35z m33 12 c-6 -6 -7 0 -4 19 5 21 7 23 10 9 2 -10 0
-22 -6 -28z m-132 25 c-1 -18 -18 -35 -24 -24 -4 6 -4 16 -1 21 7 12 25 13 25
3z m-15 -84 c-6 -29 -15 -37 -15 -12 0 17 8 33 16 33 2 0 1 -10 -1 -21z m28
-1 c-5 -22 -5 -22 9 -4 14 18 15 18 33 0 13 -14 15 -19 4 -23 -7 -2 -15 2 -17
9 -3 9 -6 10 -12 0 -4 -7 -14 -10 -22 -8 -12 2 -13 9 -7 26 5 12 10 22 13 22
2 0 2 -10 -1 -22z m77 12 c4 6 7 -2 6 -20 l-1 -31 -17 22 c-10 11 -15 26 -11
32 5 8 8 7 11 -2 3 -10 6 -10 12 -1z m103 -7 c-7 -2 -9 -11 -6 -19 3 -8 0 -14
-6 -14 -6 0 -11 6 -11 13 0 16 22 39 29 30 3 -3 1 -8 -6 -10z m23 -19 c-4 -9
-9 -15 -11 -12 -3 3 -3 13 1 22 4 9 9 15 11 12 3 -3 3 -13 -1 -22z m-69 -16
c-3 -7 -5 -2 -5 12 0 14 2 19 5 13 2 -7 2 -19 0 -25z m-147 -53 c-8 -10 -8
-14 2 -18 7 -3 1 -6 -14 -6 -17 -1 -28 4 -28 12 0 18 5 22 30 24 17 2 19 -1
10 -12z m27 -17 c-3 -7 -5 -2 -5 12 0 14 2 19 5 13 2 -7 2 -19 0 -25z m120 1
c0 -21 -3 -26 -9 -16 -4 9 -5 22 -2 31 9 23 11 20 11 -15z m60 -1 c-3 -7 -5
-2 -5 12 0 14 2 19 5 13 2 -7 2 -19 0 -25z m-137 7 c0 -8 -7 -15 -15 -15 -9 0
-12 6 -9 15 4 8 10 15 15 15 5 0 9 -7 9 -15z m17 -7 c-3 -8 -6 -5 -6 6 -1 11
2 17 5 13 3 -3 4 -12 1 -19z m33 6 c0 -8 -4 -12 -10 -9 -5 3 -10 10 -10 16 0
5 5 9 10 9 6 0 10 -7 10 -16z m114 1 c-4 -8 -8 -15 -10 -15 -2 0 -4 7 -4 15 0
8 4 15 10 15 5 0 7 -7 4 -15z m-51 -69 c18 2 27 -2 27 -11 0 -23 -21 -28 -36
-9 -11 13 -14 14 -11 4 3 -11 -4 -16 -24 -17 -16 -1 -29 3 -29 9 0 7 -4 7 -14
-1 -7 -6 -20 -9 -29 -5 -8 3 -18 0 -22 -6 -5 -8 -11 -8 -21 1 -8 6 -14 14 -14
18 0 12 115 10 122 -2 5 -7 8 -2 8 13 0 14 3 20 8 14 4 -6 19 -10 35 -8z
m-186 -16 c-1 -22 -17 -28 -17 -7 0 12 9 27 16 27 2 0 2 -9 1 -20z m53 -88 c0
-15 -2 -15 -10 -2 -13 20 -13 33 0 25 6 -3 10 -14 10 -23z m21 1 c-12 -20 -14
-14 -5 12 4 9 9 14 11 11 3 -2 0 -13 -6 -23z m39 9 c0 -4 -6 -14 -12 -21 -10
-11 -10 -13 0 -7 6 4 12 2 12 -3 0 -6 -7 -11 -15 -11 -16 0 -19 9 -9 34 6 16
24 22 24 8z m68 -15 c2 -9 -3 -15 -12 -13 -21 3 -29 13 -21 26 9 15 29 7 33
-13z m49 8 c5 -4 2 -4 -6 0 -11 6 -13 4 -8 -8 4 -11 2 -14 -8 -11 -23 9 -27
34 -5 31 11 -2 23 -7 27 -12z m-200 -74 c5 5 9 1 9 -10 0 -21 -35 -25 -48 -6
-5 6 -11 5 -18 -5 -8 -13 -10 -13 -10 1 0 23 9 29 35 19 13 -5 26 -5 32 1z
m30 -23 c-3 -7 -5 -2 -5 12 0 14 2 19 5 13 2 -7 2 -19 0 -25z m62 6 c-12 -15
-49 -19 -49 -6 0 14 10 20 36 20 19 0 22 -3 13 -14z m64 10 c-7 -3 -9 -12 -6
-21 5 -13 3 -13 -16 -2 -19 13 -19 14 -3 21 9 3 22 7 27 7 6 -1 5 -3 -2 -5z
m-63 -74 c0 -5 -4 -10 -10 -10 -5 0 -10 5 -10 10 0 6 5 10 10 10 6 0 10 -4 10
-10z m-153 -22 c-3 -8 -6 -5 -6 6 -1 11 2 17 5 13 3 -3 4 -12 1 -19z m63 0 c0
-12 -3 -18 -7 -14 -11 10 -12 36 -2 36 5 0 9 -10 9 -22z m23 2 c-3 -12 -8 -19
-11 -16 -5 6 5 36 12 36 2 0 2 -9 -1 -20z m144 -27 c-3 -10 -5 -2 -5 17 0 19
2 27 5 18 2 -10 2 -26 0 -35z m36 6 c-6 -6 -9 -1 -7 13 3 33 6 36 11 14 3 -10
1 -22 -4 -27z m-248 -58 c-8 -14 -25 -14 -25 0 0 5 5 7 10 4 6 -3 10 -1 10 6
0 7 3 10 6 6 3 -3 3 -10 -1 -16z m35 9 c0 -5 -5 -10 -11 -10 -5 0 -7 5 -4 10
3 6 8 10 11 10 2 0 4 -4 4 -10z m-13 -92 c-3 -8 -6 -5 -6 6 -1 11 2 17 5 13 3
-3 4 -12 1 -19z m87 -10 c-6 -10 -4 -10 7 0 7 6 16 12 19 12 10 0 9 -39 -1
-45 -5 -4 -9 -1 -9 5 0 7 -7 10 -15 6 -10 -4 -15 1 -15 14 0 11 5 20 11 20 5
0 7 -6 3 -12z m62 -8 c0 -11 -4 -20 -8 -20 -4 0 -8 9 -8 20 0 11 4 20 8 20 4
0 8 -9 8 -20z m34 -5 c0 -8 -4 -15 -10 -15 -5 0 -7 7 -4 15 4 8 8 15 10 15 2
0 4 -7 4 -15z m27 0 c0 -8 -4 -15 -9 -15 -4 0 -8 7 -8 15 0 8 4 15 8 15 5 0 9
-7 9 -15z m-217 -70 c0 -14 -4 -25 -9 -25 -4 0 -6 11 -3 25 2 14 6 25 8 25 2
0 4 -11 4 -25z m30 0 c0 -14 -4 -25 -9 -25 -4 0 -6 11 -3 25 2 14 6 25 8 25 2
0 4 -11 4 -25z m150 -27 c0 -5 -7 -2 -16 6 -20 20 -28 20 -20 1 3 -8 1 -15 -4
-15 -6 0 -10 11 -10 25 0 25 1 25 25 9 14 -9 25 -21 25 -26z m-123 17 c0 -8
-4 -15 -9 -15 -10 0 -11 14 -1 23 9 10 10 9 10 -8z m29 -12 c-10 -10 -19 5
-10 18 6 11 8 11 12 0 2 -7 1 -15 -2 -18z m159 -12 c-9 -16 -25 -3 -18 15 4
10 9 12 15 6 6 -6 7 -15 3 -21z m-258 -63 c-3 -7 -5 -2 -5 12 0 14 2 19 5 13
2 -7 2 -19 0 -25z m35 0 c-5 -21 -6 -21 -12 -2 -8 21 -3 37 10 29 4 -3 6 -15
2 -27z m28 7 c0 -14 -4 -25 -9 -25 -4 0 -6 11 -3 25 2 14 6 25 8 25 2 0 4 -11
4 -25z m120 -15 c0 -16 -4 -30 -8 -30 -5 0 -7 14 -4 30 2 17 6 30 8 30 2 0 4
-13 4 -30z m28 -22 c-13 -26 -15 -22 -10 20 4 29 6 33 12 17 4 -11 3 -28 -2
-37z m-78 25 c0 -15 -2 -16 -10 -3 -8 12 -10 12 -10 1 0 -11 -3 -11 -17 0 -11
10 -14 10 -9 2 4 -7 2 -13 -3 -13 -6 0 -11 7 -11 15 0 10 10 15 30 15 22 0 30
-5 30 -17z m-601 -45 c-1 -18 -2 -19 -6 -5 -4 15 -7 16 -21 5 -15 -12 -16 -11
-3 5 19 24 31 21 30 -5z m71 7 c0 -2 -7 -5 -15 -9 -9 -3 -15 0 -15 9 0 9 6 12
15 9 8 -4 15 -7 15 -9z m387 -28 c10 4 14 2 12 -6 -3 -7 -8 -11 -11 -9 -4 2
-14 -6 -22 -17 -15 -19 -18 -17 -20 15 -2 17 17 34 22 20 2 -5 10 -6 19 -3z
m36 -17 c-7 -28 -13 -25 -13 6 0 14 4 23 9 20 5 -3 7 -15 4 -26z m174 -17 c-3
-10 -5 -4 -5 12 0 17 2 24 5 18 2 -7 2 -21 0 -30z m38 27 c3 -5 1 -10 -4 -10
-6 0 -11 5 -11 10 0 6 2 10 4 10 3 0 8 -4 11 -10z m-155 -15 c0 -8 -4 -15 -8
-15 -5 0 -9 7 -9 15 0 8 4 15 9 15 4 0 8 -7 8 -15z m26 -5 c0 -12 -4 -16 -9
-11 -5 5 -6 14 -3 20 10 15 12 14 12 -9z m72 -3 c5 -22 -24 -22 -32 0 -6 15
-8 15 -16 3 -6 -8 -10 -10 -10 -4 0 28 53 29 58 1z m-682 -1 c3 -8 15 -11 30
-8 13 2 24 0 24 -6 0 -17 -18 -24 -23 -10 -4 10 -8 9 -16 -2 -6 -8 -11 -10
-11 -5 0 6 -5 3 -10 -5 -8 -11 -9 -7 -4 15 4 23 3 26 -5 15 -13 -19 -51 -22
-51 -4 0 17 12 18 29 2 7 -7 12 -8 11 -3 -6 27 16 36 26 11z m731 -18 c-3 -8
-6 -5 -6 6 -1 11 2 17 5 13 3 -3 4 -12 1 -19z m-639 0 c15 -15 16 -28 2 -28
-5 0 -10 8 -10 18 0 14 -2 15 -10 2 -8 -13 -10 -12 -10 3 0 20 11 22 28 5z
m70 -19 c3 -11 1 -11 -7 1 -10 13 -11 13 -12 0 0 -10 -2 -11 -6 -2 -2 6 -9 10
-14 6 -5 -3 -9 0 -9 5 0 16 43 7 48 -10z m149 -21 c-3 -7 -5 -2 -5 12 0 14 2
19 5 13 2 -7 2 -19 0 -25z m85 -10 c-6 -6 -7 0 -4 19 5 21 7 23 10 9 2 -10 0
-22 -6 -28z m-26 13 c0 -13 -5 -17 -16 -13 -32 11 -34 16 -10 23 14 4 25 7 25
8 1 1 1 -7 1 -18z m61 -3 c-3 -8 -6 -5 -6 6 -1 11 2 17 5 13 3 -3 4 -12 1 -19z
m24 -10 c-3 -21 -6 -26 -9 -15 -3 17 3 47 11 47 2 0 1 -15 -2 -32z m62 -4 c-2
-5 -12 -8 -23 -7 -30 1 -32 2 -25 13 7 12 51 7 48 -6z m-556 -26 c-3 -7 -5 -2
-5 12 0 14 2 19 5 13 2 -7 2 -19 0 -25z m84 10 c0 -10 2 -10 6 0 2 6 9 12 15
12 6 0 8 -7 5 -15 -4 -8 -2 -17 3 -20 5 -3 11 5 13 17 4 20 4 19 6 -4 1 -24
-3 -28 -28 -28 -36 0 -91 19 -91 31 0 6 9 5 20 -1 11 -6 20 -7 19 -3 -3 17 2
23 16 23 8 0 15 -6 16 -12z m104 -20 c-4 -36 -4 -38 -15 -38 -5 0 -7 7 -5 15
3 8 7 22 10 30 7 22 13 18 10 -7z m540 12 c3 -5 1 -10 -4 -10 -6 0 -11 5 -11
10 0 6 2 10 4 10 3 0 8 -4 11 -10z m-565 -20 c0 -5 -4 -10 -10 -10 -5 0 -10 5
-10 10 0 6 5 10 10 10 6 0 10 -4 10 -10z m41 -13 c-10 -9 -11 -8 -5 6 3 10 9
15 12 12 3 -3 0 -11 -7 -18z m69 -3 c0 -8 -4 -14 -9 -14 -18 0 -41 12 -41 22
0 6 7 8 15 4 8 -3 15 -1 15 5 0 6 5 7 10 4 6 -3 10 -13 10 -21z m80 18 c0 -14
-36 -43 -43 -35 -13 13 -7 35 8 29 8 -3 15 -1 15 4 0 6 5 10 10 10 6 0 10 -4
10 -8z m27 -22 c2 -16 -3 -20 -25 -20 -25 1 -25 2 -9 14 9 7 17 19 17 26 0 19
13 3 17 -20z m43 -1 c0 -18 2 -19 15 -9 9 7 18 10 22 6 3 -3 0 -6 -8 -6 -12 0
-12 -2 0 -9 9 -6 5 -8 -13 -8 -18 0 -26 5 -26 17 0 10 -6 21 -12 23 -8 3 -6 6
5 6 11 1 17 -6 17 -20z m66 -18 c0 -11 -4 -17 -8 -15 -4 3 -8 12 -8 20 0 8 4
14 8 14 4 0 8 -9 8 -19z m27 -1 c3 -11 1 -20 -4 -20 -5 0 -9 9 -9 20 0 11 2
20 4 20 2 0 6 -9 9 -20z m67 -5 c0 -10 -10 -15 -27 -15 -26 0 -26 1 -7 15 25
19 34 19 34 0z m-480 -20 c0 -8 -2 -15 -4 -15 -2 0 -6 7 -10 15 -3 8 -1 15 4
15 6 0 10 -7 10 -15z m533 -5 c-3 -11 -9 -20 -15 -20 -5 0 -4 9 2 20 6 11 12
20 14 20 2 0 2 -9 -1 -20z m-453 -21 c0 -5 -4 -9 -8 -9 -5 0 -9 7 -9 15 0 8 4
12 9 9 4 -3 8 -9 8 -15z m80 -3 c0 -17 -14 -29 -23 -20 -8 8 3 34 14 34 5 0 9
-6 9 -14z m30 -6 c0 -5 -4 -10 -10 -10 -5 0 -10 5 -10 10 0 6 5 10 10 10 6 0
10 -4 10 -10z m151 -43 c-7 -7 -9 -1 -7 19 5 40 8 43 13 15 3 -13 0 -28 -6
-34z m37 18 c0 -13 -4 -22 -9 -19 -5 3 -9 14 -9 25 0 10 4 19 9 19 5 0 9 -11
9 -25z m32 -5 c0 -11 -4 -20 -10 -20 -5 0 -10 9 -10 20 0 11 5 20 10 20 6 0
10 -9 10 -20z m30 6 c0 -3 -4 -8 -10 -11 -5 -3 -10 -1 -10 4 0 6 5 11 10 11 6
0 10 -2 10 -4z"/>
<path d="M1171 1094 c0 -11 3 -14 6 -6 3 7 2 16 -1 19 -3 4 -6 -2 -5 -13z"/>
</g>
</svg>
