<?xml version="1.0" standalone="no"?>
<!DOCTYPE svg PUBLIC "-//W3C//DTD SVG 20010904//EN"
 "http://www.w3.org/TR/2001/REC-SVG-20010904/DTD/svg10.dtd">
<svg version="1.0" xmlns="http://www.w3.org/2000/svg"
 width="2362.000000pt" height="2362.000000pt" viewBox="0 0 2362.000000 2362.000000"
 preserveAspectRatio="xMidYMid meet">

<g transform="translate(0.000000,2362.000000) scale(0.100000,-0.100000)"
fill="#000000" stroke="none">
<path d="M11450 21200 c-849 -36 -1071 -51 -1620 -116 -1417 -165 -2918 -522
-3567 -847 -225 -113 -370 -233 -430 -354 -24 -51 -28 -69 -28 -148 0 -82 3
-97 33 -157 59 -120 205 -234 397 -311 284 -113 595 -155 1080 -143 143 3 271
7 285 8 24 3 25 1 32 -77 4 -44 12 -172 17 -285 17 -318 77 -915 127 -1254 14
-92 23 -170 21 -173 -3 -2 -40 5 -83 16 -136 35 -237 44 -393 38 -476 -20
-843 -241 -1034 -623 -78 -154 -102 -265 -101 -464 0 -167 15 -268 61 -414 87
-279 318 -585 564 -746 105 -69 177 -98 277 -113 39 -6 72 -14 72 -18 0 -4
-18 -79 -40 -166 -71 -284 -151 -744 -190 -1088 -31 -280 -69 -747 -80 -995
-18 -377 -23 -1320 -11 -1989 6 -349 9 -636 7 -638 -2 -2 -49 -15 -105 -28
-348 -84 -749 -335 -895 -559 -22 -32 -50 -91 -64 -130 -21 -60 -24 -84 -20
-166 3 -84 8 -105 35 -161 43 -87 90 -139 178 -198 140 -93 274 -126 484 -118
149 5 244 29 348 88 29 16 57 29 62 29 5 0 11 -498 14 -1232 6 -1222 11 -1486
41 -1873 42 -534 127 -991 263 -1408 135 -418 236 -627 474 -983 l108 -162
-66 -38 c-77 -45 -206 -177 -276 -282 -69 -103 -134 -246 -163 -359 -32 -121
-43 -328 -25 -425 29 -148 114 -264 238 -325 66 -33 85 -37 147 -37 166 0 320
77 576 285 252 205 288 233 371 288 58 39 108 64 153 76 38 10 70 24 73 32 3
7 9 13 14 13 4 0 77 -29 161 -64 591 -246 1217 -388 1967 -446 173 -13 884
-13 1061 0 737 55 1491 186 1927 335 177 60 647 238 739 280 42 19 84 35 94
35 10 0 52 -40 93 -89 211 -246 538 -480 759 -541 90 -25 252 -36 335 -22 53
9 71 19 136 71 137 111 187 215 194 406 6 147 -15 264 -76 414 -69 172 -156
306 -291 446 l-77 80 88 125 c339 480 549 997 683 1685 58 299 83 505 117 980
20 266 22 396 26 1567 3 703 7 1278 9 1278 1 0 43 -13 91 -30 149 -49 255 -63
443 -57 241 8 380 48 524 151 72 51 106 93 144 174 22 48 27 71 26 142 0 172
-68 307 -238 475 -255 252 -519 388 -857 443 l-104 17 5 370 c14 1004 2 1962
-30 2505 -63 1052 -215 1867 -469 2504 -59 147 -62 134 44 206 287 194 539
528 649 862 66 197 74 413 22 574 -47 148 -172 303 -311 386 -299 180 -802
199 -1233 46 -62 -22 -115 -38 -118 -35 -3 3 4 68 15 144 55 363 158 1386 177
1761 4 76 12 136 18 140 6 5 103 17 216 26 457 38 872 97 1108 156 308 78 430
175 407 326 -26 175 -293 310 -955 483 -266 70 -1491 240 -2260 315 -484 48
-586 56 -865 71 -154 9 -345 20 -425 25 -206 14 -1087 20 -1330 10z m1230
-210 c952 -39 1893 -137 3122 -325 393 -61 549 -97 903 -211 182 -58 365 -149
365 -181 0 -16 -106 -66 -195 -92 -92 -27 -150 -39 -241 -52 -61 -8 -77 -8
-88 4 -14 14 -644 197 -881 256 -473 118 -1194 256 -1625 311 -135 17 -310 39
-390 50 -168 23 -496 54 -725 69 -88 6 -227 16 -310 22 -82 6 -233 16 -335 22
-236 15 -1363 14 -1550 -2 -74 -6 -198 -16 -275 -22 -77 -5 -221 -16 -320 -24
-134 -11 -211 -12 -300 -5 -120 10 -249 29 -242 36 5 6 567 71 757 88 609 55
1700 82 2330 56z m-1081 -1009 c143 -87 310 -168 425 -206 167 -56 252 -70
428 -70 l158 0 0 -32 c0 -71 -54 -304 -101 -437 -159 -449 -446 -857 -782
-1109 -96 -72 -230 -137 -284 -137 -103 0 -328 97 -468 202 -93 70 -312 284
-392 383 -270 335 -439 723 -460 1058 -7 111 -11 107 82 78 184 -57 474 -72
662 -32 243 51 456 163 580 307 26 30 49 54 51 54 2 0 48 -27 101 -59z m3461
-625 c96 -9 190 -18 209 -22 l33 -5 -6 -87 c-7 -83 -50 -540 -62 -650 -4 -39
-11 -56 -27 -66 -38 -24 -571 -169 -581 -158 -20 20 5 648 34 848 5 38 10 91
10 118 l0 49 108 -6 c59 -3 186 -13 282 -21z m130 -1158 c0 -18 -11 -121 -25
-228 -19 -150 -29 -198 -42 -211 -26 -25 -140 -62 -286 -94 -80 -18 -131 -25
-137 -19 -29 29 -86 411 -65 432 9 9 504 149 533 151 18 1 22 -4 22 -31z
m1077 -533 c115 -19 246 -62 319 -106 73 -44 165 -143 198 -212 92 -195 70
-409 -71 -692 -92 -184 -219 -350 -358 -468 -94 -80 -196 -150 -206 -140 -4 5
-39 67 -78 139 l-71 131 15 43 c36 103 34 279 -5 383 -45 120 -155 230 -279
279 -42 16 -78 22 -148 22 l-92 1 -123 121 c-68 66 -147 137 -176 158 -29 21
-51 43 -49 50 5 16 120 91 201 133 278 141 643 203 923 158z m-1389 -397 c154
-64 322 -197 466 -368 385 -459 649 -933 846 -1520 136 -406 251 -960 310
-1500 30 -280 70 -799 70 -920 0 -106 0 -106 -29 -128 -19 -14 -38 -45 -55
-89 -14 -37 -43 -90 -63 -118 -68 -89 -335 -348 -468 -453 -803 -634 -1825
-1059 -2856 -1188 l-225 -28 -140 22 c-366 59 -592 76 -904 69 -261 -7 -375
-20 -655 -75 -186 -36 -195 -37 -415 -37 -252 1 -380 15 -730 85 -748 148
-1568 409 -2269 722 -273 121 -578 292 -670 374 l-46 42 3 278 c8 826 112
1732 273 2375 176 704 456 1286 869 1803 81 102 105 126 125 126 28 0 105 -36
105 -48 0 -4 -23 -41 -51 -82 -69 -105 -162 -295 -204 -422 -92 -275 -114
-540 -70 -841 49 -334 196 -624 429 -845 275 -259 646 -401 1054 -402 290 0
556 58 802 176 187 90 311 176 458 318 200 193 320 383 402 638 92 283 102
491 39 802 -12 58 -16 103 -11 108 10 10 548 35 558 25 3 -3 -1 -62 -10 -131
-27 -214 -19 -315 45 -564 50 -191 123 -339 257 -518 123 -163 225 -259 407
-381 217 -145 455 -234 769 -288 218 -37 587 -1 797 78 97 37 244 112 339 175
97 63 248 210 333 324 203 271 310 671 279 1037 -43 503 -221 885 -512 1101
-39 29 -70 55 -70 59 0 4 27 26 61 50 33 24 95 71 137 105 84 68 110 85 130
86 7 0 48 -14 90 -32z m-539 -36 c-51 -40 -146 -100 -189 -121 l-45 -22 50 47
c28 26 82 62 120 80 79 38 99 42 64 16z m-6854 -42 c225 -22 391 -85 500 -192
35 -35 81 -77 100 -95 45 -39 47 -34 -82 -197 -52 -65 -112 -146 -135 -180
-23 -33 -46 -65 -52 -69 -6 -4 -40 -5 -76 -2 -151 13 -299 -69 -411 -229 -68
-96 -100 -201 -102 -326 -1 -117 18 -185 73 -263 22 -32 40 -66 40 -75 0 -21
-98 -293 -112 -309 -15 -18 -126 -16 -179 2 -188 66 -418 303 -543 557 -132
267 -157 527 -75 773 45 136 101 226 199 325 176 175 426 276 715 289 17 0 80
-4 140 -9z m6885 -287 c76 -45 200 -164 253 -246 95 -144 163 -321 213 -552
25 -116 28 -151 28 -325 1 -153 -3 -213 -17 -280 -70 -323 -208 -569 -422
-749 -106 -89 -155 -122 -267 -176 -198 -97 -359 -130 -633 -129 -178 0 -214
3 -326 27 -222 47 -407 123 -580 239 -115 77 -295 249 -372 356 -114 159 -201
359 -244 562 -33 158 -16 516 25 553 10 8 44 18 77 21 116 13 529 87 654 117
502 119 991 311 1371 538 74 44 144 81 155 81 11 0 50 -17 85 -37z m-5605
-348 c499 -194 1338 -353 2040 -387 156 -7 245 -15 253 -23 35 -32 75 -265 76
-445 1 -169 -12 -251 -64 -410 -104 -319 -291 -562 -580 -756 -221 -147 -464
-230 -777 -264 -174 -19 -423 12 -615 76 -416 138 -724 500 -818 965 -86 421
44 996 284 1257 47 51 36 51 201 -13z m7831 -4432 l7 -312 -28 -41 c-21 -30
-31 -60 -37 -107 -34 -282 -198 -564 -513 -879 -174 -174 -308 -284 -525 -429
-196 -131 -360 -225 -575 -330 -272 -134 -676 -295 -708 -282 -8 3 -41 52 -74
109 -104 177 -260 386 -421 559 -83 91 -263 242 -369 312 -51 33 -93 63 -93
68 0 4 44 15 98 24 1009 175 1964 597 2729 1205 175 140 345 298 428 401 l59
71 8 -28 c4 -16 11 -169 14 -341z m-9414 -310 c491 -295 1331 -621 2176 -843
449 -119 890 -206 1167 -230 202 -18 201 -3 8 -172 -207 -180 -390 -361 -498
-493 -100 -123 -165 -214 -165 -232 0 -7 -9 -22 -20 -33 -27 -27 -92 -26 -244
5 -408 82 -1004 346 -1441 637 -424 283 -791 623 -1061 981 l-74 98 0 185 c0
102 3 184 8 182 4 -1 69 -40 144 -85z m-55 -725 c166 -194 475 -477 713 -652
488 -362 1111 -666 1629 -795 219 -55 353 -65 425 -32 23 10 55 22 71 27 25 8
38 24 72 92 47 92 68 122 194 267 135 157 547 540 581 540 6 0 23 -42 38 -93
109 -368 409 -721 767 -905 56 -28 83 -48 83 -60 0 -9 -44 -131 -99 -270 -189
-482 -375 -1009 -520 -1474 -50 -160 -91 -302 -91 -317 0 -30 48 -86 74 -86 9
0 116 -100 238 -223 237 -238 450 -429 632 -567 61 -46 134 -109 163 -138 40
-42 59 -55 90 -59 55 -7 113 25 163 90 22 28 50 63 63 77 12 14 33 40 45 57
13 18 167 200 343 405 176 205 328 391 339 413 37 76 29 128 -49 304 -131 298
-256 660 -436 1266 -74 251 -168 556 -182 591 -2 6 42 47 99 91 128 99 291
268 380 393 109 153 202 347 229 478 9 41 18 62 27 62 32 0 184 -122 318 -255
212 -210 368 -418 495 -659 61 -116 94 -156 132 -156 23 0 394 137 571 211 65
28 206 94 315 148 473 237 797 460 1105 761 161 157 224 231 349 409 l82 116
3 -260 c2 -143 -4 -570 -13 -950 -9 -438 -15 -1096 -15 -1805 0 -613 -4 -1261
-10 -1440 -10 -306 -45 -864 -56 -903 -7 -22 -36 -37 -183 -92 -342 -127 -864
-288 -1246 -385 -868 -220 -1607 -333 -2625 -402 -254 -17 -1334 -17 -1585 0
-799 54 -1190 96 -1775 193 -497 82 -922 176 -1350 298 -258 73 -531 169 -557
194 -20 21 -23 43 -42 327 -30 437 -41 1032 -41 2190 0 558 -4 1193 -10 1410
-5 217 -14 629 -20 915 -5 286 -12 568 -15 628 -4 85 -3 107 8 107 7 0 45 -37
84 -82z m4026 -406 c24 -94 96 -236 166 -329 243 -322 630 -509 1036 -502 75
2 132 -1 134 -7 9 -17 -142 -124 -252 -179 -121 -61 -147 -65 -267 -40 -441
93 -858 519 -951 971 -15 75 -3 115 44 138 60 29 71 23 90 -52z m5755 -547
c262 -53 524 -195 718 -390 81 -81 109 -117 142 -183 50 -100 61 -169 37 -229
l-17 -43 -42 29 c-63 43 -162 91 -255 122 -118 40 -150 37 -179 -18 -33 -60
-1 -96 123 -141 101 -37 210 -92 210 -107 0 -13 -112 -53 -205 -72 -118 -24
-367 -14 -483 21 -49 14 -106 35 -128 46 -76 39 -73 18 -66 508 3 240 8 445
12 455 9 21 34 21 133 2z m-10054 -191 c3 -9 9 -189 13 -401 l6 -384 -69 -68
c-118 -115 -214 -147 -420 -138 -94 3 -145 10 -187 25 -59 21 -117 52 -117 62
0 3 48 39 106 80 59 41 113 84 120 95 36 51 -4 125 -69 125 -26 0 -59 -18
-152 -85 -65 -47 -121 -85 -125 -85 -15 0 -34 66 -34 118 2 78 58 186 143 271
128 130 396 286 620 362 128 43 156 47 165 23z m5206 -548 c18 -8 27 -23 34
-54 8 -40 5 -49 -57 -174 -98 -198 -148 -334 -232 -633 -82 -293 -205 -828
-205 -893 0 -31 194 -304 434 -610 286 -366 261 -329 245 -358 -21 -41 -56
-74 -77 -74 -38 0 -420 322 -676 570 -197 191 -296 305 -296 340 0 39 258 816
388 1165 125 338 272 716 285 733 12 16 115 8 157 -12z m4390 -3883 c0 -65
-80 -473 -126 -643 -43 -157 -128 -419 -179 -546 -127 -321 -414 -785 -599
-969 -68 -67 -288 -230 -442 -326 -307 -194 -756 -379 -1219 -504 -93 -25
-240 -69 -325 -96 -444 -144 -1039 -238 -1710 -270 -299 -14 -839 -6 -1035 15
-580 64 -932 134 -1345 268 -501 163 -762 293 -1210 602 -307 213 -660 759
-848 1311 -64 187 -143 485 -182 683 -50 255 -57 312 -40 312 7 0 96 -27 199
-59 763 -244 1639 -419 2541 -510 711 -72 1183 -95 1844 -88 538 5 677 11
1091 48 724 63 1242 143 1943 300 451 101 1148 308 1527 453 105 40 115 42
115 19z m-643 -2359 c168 -176 272 -391 303 -627 13 -96 4 -168 -30 -238 -42
-88 -63 -98 -75 -36 -18 88 -58 201 -80 223 -33 32 -84 32 -114 0 -28 -30 -26
-52 18 -219 17 -66 28 -123 25 -128 -8 -14 -104 -11 -169 6 -196 51 -474 242
-671 463 -41 45 -74 87 -74 92 0 4 53 39 118 76 215 123 401 254 557 390 47
41 93 74 103 74 9 0 50 -34 89 -76z m-7815 -146 c168 -146 348 -275 537 -383
73 -42 82 -50 66 -59 -128 -76 -226 -147 -445 -327 -251 -205 -377 -280 -475
-283 -36 -1 -40 1 -37 23 4 42 60 146 122 226 69 91 82 134 53 173 -14 19 -31
28 -58 30 -33 3 -42 -2 -80 -42 -57 -59 -113 -142 -164 -243 -23 -46 -44 -83
-47 -83 -3 0 -17 26 -32 58 -25 54 -27 65 -27 197 1 159 20 253 79 381 73 157
213 331 305 379 80 42 108 36 203 -47z"/>
<path d="M11568 14814 c-360 -55 -638 -233 -673 -430 -11 -59 -22 -73 -72 -95
-115 -49 -259 -170 -333 -279 -90 -133 -124 -241 -118 -374 3 -83 8 -102 40
-168 82 -164 217 -250 426 -268 104 -9 128 -19 117 -48 -17 -46 -25 -242 -15
-344 21 -216 70 -337 179 -449 119 -121 256 -162 414 -125 67 16 160 57 172
76 14 23 43 8 73 -38 60 -93 162 -142 297 -142 185 0 318 99 374 280 37 120
45 205 43 430 -1 118 -3 229 -4 245 l-3 30 115 5 c133 6 182 25 250 93 166
165 166 511 0 764 -88 133 -180 212 -347 298 l-98 50 -6 75 c-3 43 -14 94 -26
120 -27 61 -99 138 -164 177 -74 44 -301 111 -413 123 -103 10 -125 10 -228
-6z m347 -179 c97 -21 183 -66 249 -130 84 -83 86 -147 6 -238 -82 -93 -222
-155 -410 -182 -285 -42 -632 56 -690 195 -39 95 86 227 286 299 75 27 169 52
244 64 63 10 251 5 315 -8z m536 -527 c155 -77 286 -235 335 -403 37 -126 18
-284 -43 -356 -40 -47 -73 -59 -166 -59 -99 0 -143 11 -487 116 l-255 79 -140
-1 c-128 0 -155 -3 -316 -41 -459 -109 -617 -106 -748 13 -109 98 -118 237
-28 409 59 112 252 275 325 275 11 0 47 -23 79 -51 140 -123 340 -182 613
-183 260 -1 473 64 621 189 80 67 99 69 210 13z m-818 -1090 c3 -224 9 -327
22 -394 15 -85 15 -94 0 -123 -19 -37 -92 -87 -150 -102 -59 -16 -147 -5 -199
25 -127 74 -196 239 -199 476 -2 129 16 277 37 306 8 11 82 32 227 64 118 27
224 49 235 49 22 1 22 -1 27 -301z m407 226 c235 -67 236 -67 255 -104 26 -50
38 -191 32 -370 -8 -233 -41 -365 -109 -427 -83 -77 -254 -49 -314 52 -82 140
-122 410 -109 737 l7 178 27 -6 c14 -4 109 -30 211 -60z"/>
<path d="M13315 16032 c-143 -43 -260 -134 -316 -247 -89 -181 -70 -396 48
-553 202 -265 597 -287 812 -45 142 159 172 395 73 576 -57 106 -170 203 -296
255 -82 34 -232 40 -321 14z m478 -242 c45 -40 61 -79 55 -141 -14 -140 -198
-174 -263 -49 -22 42 -19 116 6 156 27 44 63 63 121 64 39 0 54 -6 81 -30z"/>
<path d="M9629 15960 c-256 -40 -444 -272 -426 -526 21 -286 253 -499 542
-497 294 1 520 242 503 536 -6 98 -32 174 -86 255 -116 169 -331 263 -533 232z
m381 -242 c118 -81 74 -266 -67 -285 -113 -15 -199 120 -145 227 38 77 142
105 212 58z"/>
<path d="M15086 8788 c-13 -13 -34 -49 -45 -80 -42 -117 -116 -198 -229 -251
-169 -79 -438 -23 -553 114 -36 43 -45 49 -80 49 -61 0 -83 -28 -76 -99 3 -31
1 -104 -5 -163 -7 -75 -7 -148 1 -245 56 -674 394 -1230 937 -1545 106 -61
201 -104 260 -119 92 -24 197 36 393 226 328 317 548 773 628 1302 19 130 23
534 5 660 -16 118 -46 153 -127 153 -46 0 -75 -29 -75 -74 0 -134 -162 -236
-374 -236 -208 0 -403 103 -482 255 -16 30 -39 59 -52 64 -40 19 -98 13 -126
-11z m133 -273 c110 -117 327 -205 507 -205 139 0 291 37 372 91 77 52 76 53
68 -151 -8 -199 -23 -308 -66 -480 -87 -345 -220 -612 -429 -861 -90 -108
-152 -167 -258 -246 l-72 -53 -128 62 c-189 92 -289 163 -433 307 -314 315
-482 705 -516 1198 -7 110 -1 153 20 153 7 0 38 -11 67 -24 175 -77 394 -74
558 7 71 35 175 126 222 194 17 24 36 43 42 43 7 0 28 -16 46 -35z"/>
</g>
</svg>
